<svg height="66.660515mm" viewBox="0 0 66.660522 66.660515" width="66.660522mm" xmlns="http://www.w3.org/2000/svg"><path d="m68.782601 180.1862a33.330326 33.330326 0 0 0 -33.330266 33.33026 33.330326 33.330326 0 0 0 33.330266 33.33026 33.330326 33.330326 0 0 0 33.330259-33.33026 33.330326 33.330326 0 0 0 -33.330259-33.33026zm18.694466 16.23104c4.474489 0 4.476539.00031 5.178499.84801.75796.91534.75926 1.31929.015 4.65915-.0851.38201-.21364.97037-.28525 1.30741-.0716.33704-.31018 1.44837-.53072 2.46962-.57241 2.65075-1.14644 5.34354-1.2516 5.87355-.15125.76228-.97497 4.71214-1.55288 7.44605-.20453.96759-.57974 2.77208-.933793 4.49069-.400425 1.94378-.659989 2.7893-1.187529 3.86539-1.05735 2.15682-2.609236 3.18962-4.352706 2.89698-1.38504-.23246-2.546525-1.29297-3.325895-3.03702-.41884-.93726-.624374-1.65139-1.852084-6.43475-.66699-2.59868-1.419627-5.52469-1.539957-5.98723-.26531-1.01978-.972794-3.70901-1.131714-4.30103-.0895-.33347-.243361-.91365-.341581-1.28881-.55785-2.13077-2.604535-9.75463-2.848405-10.61021-.41968-1.47241.755043-2.63275 2.043803-2.019.62562.29795.734443.49294 1.147733 2.05518.48239 1.82342 1.605731 6.08457 1.783871 6.76599.21257.8131.778315 2.94802 1.385445 5.22914.58494 2.19775 1.887305 7.28098 3.024105 11.80445.39284 1.56315.768354 2.99518.834574 3.18275.69038 1.95551 2.019059 1.98222 2.815849.0563.30431-.73552.545533-1.83515 1.976623-8.99945.73011-3.65504.977397-4.8734 1.607138-7.91994.500363-2.42063.775843-3.72701 1.594223-7.56543.16733-.78484.30437-1.47715.30437-1.5384 0-.24907.14908-.23668-2.874761-.23668-3.01818 0-2.901385-.009-3.091285.23978-.11378.14917-.782891 3.08008-2.072741 9.08213-.4178 1.94413-.569354 2.29041-1.131714 2.58279-.90079.46833-1.823646-.5558-1.883606-2.09031-.0208-.53249-.02194-.52742 1.486214-7.54114.81761-3.80222.919167-4.04455 1.992127-4.75785.82524-.54861.633431-.52814 4.998661-.52814zm-32.686377.0284c1.841044.0422 3.674001 1.45386 4.691186 4.21576.27736.75312.366555 1.06692 1.224215 4.31963.055.20842.216571.8142.359151 1.34566.14258.53148.414761 1.55419.605131 2.27324.19037.71904.463558 1.751.607198 2.29289.66299 2.50112 2.642275 10.18439 3.870565 15.02492.64829 2.55487.726741 2.89564.729671 3.18327.0137 1.34542-1.583922 2.01733-2.515092 1.05781-.24395-.25137-.328089-.48285-.668176-1.83451-.17829-.70863-.50335-1.97899-.72192-2.82308-.21857-.8441-.668655-2.59232-1.000455-3.88452s-.772142-2.99743-.978752-3.78943c-.20661-.79199-.470331-1.80654-.586011-2.25465-.11568-.4481-.255555-.9853-.310575-1.19372-.055-.20842-.326701-1.24856-.603581-2.31149-.27688-1.06294-.717308-2.7513-.979268-3.75171-.26195-1.00041-.723104-2.79058-1.024744-3.97857-1.00156-3.94454-1.545705-4.91933-2.742985-4.91649-1.21458.003-1.927761 1.19955-2.545581 4.27209-.1435.71369-.60307 2.91172-.89917 4.30103-.0733.34389-.232947 1.11133-.355017 1.70532-.12207.594-.368847 1.78761-.548287 2.65255-.17943.86494-.444264 2.14401-.588594 2.84221-.14434.6982-.399794 1.9174-.567924 2.70939s-.408972 1.93445-.534852 2.53887c-.35765 1.71738-.753202 3.62834-.772562 3.73258-.01.0521-.155518.7428-.324528 1.53479-.48791 2.28641-.80316 2.0586 2.76934 2.00247 2.98273-.0469 2.686958.094 3.009118-1.43403.11425-.54189.286416-1.35179.382406-1.79989.096-.44811.232194-1.09633.302824-1.44022.0706-.34389.291733-1.39271.491443-2.3306.19972-.93788.566457-2.6856.814937-3.88401.58007-2.79764.669035-3.0476 1.190625-3.35328.88029-.51588 1.670871.70214 1.786971 2.75332.0344.60714-.09099 1.29371-1.02526 5.62085-.135.62525-.407488 1.90431-.605648 2.8422-.19816.93788-.410869 1.93555-.472839 2.21692-.062.28136-.148507.67868-.192237.88315-.32662 1.52736-1.356224 2.56328-2.757454 2.77451-.40637.0613-6.331793.0763-6.683313.017-1.31867-.22253-2.292241-1.32145-2.282031-2.57607.003-.36058.594367-3.37238 2.402437-12.23956.25287-1.24009.525891-2.5872.606681-2.99362.1559-.78421.652291-3.21583 1.098641-5.38107.14822-.71905.405452-1.97253.571542-2.78536.52657-2.57714.713718-3.32938 1.033528-4.15685 1.04915-2.71455 2.898202-4.04194 4.739246-3.99975zm9.576676.0522c.426608-.0247.868089.12418 1.200444.48782.24916.27263.316011.42163.501261 1.11777.086.32305.290169 1.0736.453719 1.66759.16356.594.444332 1.62543.624252 2.29237.17993.66695.452961 1.67331.606681 2.23604s.381619 1.39821.506429 1.85673.397408 1.45619.605648 2.21692c.39772 1.45297.745576 2.73805 1.445906 5.34283.23255.86493.487394 1.81144.566374 2.10323.2305.85162.348265 1.29343.874365 3.27784.61492 2.31936.879963 3.31615 1.176673 4.42402.12699.47416.287874 1.07531.357084 1.33583.0692.26052.247568.92564.396358 1.47795.69923 2.59558.69322 2.5704.67231 2.88561-.0605.91236-.950022 1.56549-1.826762 1.34152-.57065-.14578-.991181-.53891-1.135331-1.06143-.029-.10518-.225989-.84761-.437699-1.65003-.2117-.80241-.510542-1.92798-.664042-2.50114-.1535-.57315-.536895-2.01388-.852145-3.20187-.59466-2.24099-1.095547-4.10947-1.381827-5.15369-.0914-.33347-.20954-.76834-.262-.96635-.0524-.19799-.369586-1.37473-.704866-2.61483-.60607-2.24162-.8836-3.25366-1.42782-5.21002-.15654-.56273-.358195-1.2964-.448035-1.62987-.26046-.96676-1.056505-3.8837-1.882572-6.89674-.4403-1.60598-.419596-1.51259-.399976-1.80351.05469-.81089.724559-1.33345 1.435571-1.37459z" fill="#f5f5f5" transform="translate(-35.452331 -180.1862)"/></svg>